<svg width="27" height="27" viewBox="0 0 27 27" fill="none" xmlns="http://www.w3.org/2000/svg">
<path d="M9.28125 22.7812C9.74724 22.7812 10.125 22.4035 10.125 21.9375C10.125 21.4715 9.74724 21.0938 9.28125 21.0938C8.81526 21.0938 8.4375 21.4715 8.4375 21.9375C8.4375 22.4035 8.81526 22.7812 9.28125 22.7812Z" stroke="#292C2D" stroke-width="1.5" stroke-linecap="round" stroke-linejoin="round"/>
<path d="M21.0938 22.7812C21.5597 22.7812 21.9375 22.4035 21.9375 21.9375C21.9375 21.4715 21.5597 21.0938 21.0938 21.0938C20.6278 21.0938 20.25 21.4715 20.25 21.9375C20.25 22.4035 20.6278 22.7812 21.0938 22.7812Z" stroke="#292C2D" stroke-width="1.5" stroke-linecap="round" stroke-linejoin="round"/>
<path d="M2.53125 4.21875H5.90625L8.4375 18.5625H21.9375" stroke="#292C2D" stroke-width="1.5" stroke-linecap="round" stroke-linejoin="round"/>
<path d="M8.4375 14.0625H21.5916C21.6891 14.0626 21.7837 14.0288 21.8592 13.967C21.9347 13.9052 21.9864 13.8191 22.0055 13.7234L23.5243 6.12967C23.5365 6.06844 23.535 6.00525 23.5199 5.94466C23.5048 5.88407 23.4764 5.8276 23.4368 5.77932C23.3972 5.73104 23.3474 5.69215 23.2909 5.66546C23.2344 5.63878 23.1728 5.62496 23.1103 5.625H6.75" stroke="#292C2D" stroke-width="1.5" stroke-linecap="round" stroke-linejoin="round"/>
</svg>
