<svg width="47" height="47" viewBox="0 0 47 47" fill="none" xmlns="http://www.w3.org/2000/svg">
<rect x="0.5" y="0.5" width="46" height="46" stroke="white"/>
<g clip-path="url(#clip0_2006_2676)">
<path fill-rule="evenodd" clip-rule="evenodd" d="M22.4993 14C21.1439 14.0001 19.8081 14.3244 18.6035 14.9457C17.3989 15.567 16.3604 16.4674 15.5745 17.5718C14.7887 18.6761 14.2783 19.9523 14.086 21.294C13.8937 22.6357 14.025 24.004 14.4691 25.2846C14.9131 26.5652 15.6569 27.7211 16.6385 28.6557C17.6201 29.5904 18.811 30.2768 20.1118 30.6576C21.4126 31.0384 22.7856 31.1026 24.1163 30.8449C25.447 30.5872 26.6967 30.015 27.7613 29.176L31.4133 32.828C31.6019 33.0102 31.8545 33.111 32.1167 33.1087C32.3789 33.1064 32.6297 33.0012 32.8151 32.8158C33.0005 32.6304 33.1057 32.3796 33.1079 32.1174C33.1102 31.8552 33.0094 31.6026 32.8273 31.414L29.1753 27.762C30.1633 26.5086 30.7784 25.0024 30.9504 23.4157C31.1223 21.8291 30.8441 20.226 30.1475 18.7901C29.4509 17.3542 28.3642 16.1434 27.0116 15.2962C25.659 14.4491 24.0952 13.9999 22.4993 14ZM15.9993 22.5C15.9993 20.7761 16.6841 19.1228 17.9031 17.9038C19.1221 16.6848 20.7754 16 22.4993 16C24.2232 16 25.8765 16.6848 27.0955 17.9038C28.3145 19.1228 28.9993 20.7761 28.9993 22.5C28.9993 24.2239 28.3145 25.8772 27.0955 27.0962C25.8765 28.3152 24.2232 29 22.4993 29C20.7754 29 19.1221 28.3152 17.9031 27.0962C16.6841 25.8772 15.9993 24.2239 15.9993 22.5Z" fill="white"/>
</g>
<defs>
<clipPath id="clip0_2006_2676">
<rect width="24" height="24" fill="white" transform="translate(12 12)"/>
</clipPath>
</defs>
</svg>
