<svg width="36" height="36" viewBox="0 0 36 36" fill="none" xmlns="http://www.w3.org/2000/svg">
<rect width="36" height="36" rx="18" fill="#E8C14A"/>
<path d="M18.1605 16.87C18.0605 16.86 17.9405 16.86 17.8305 16.87C15.4505 16.79 13.5605 14.84 13.5605 12.44C13.5605 9.99 15.5405 8 18.0005 8C20.4505 8 22.4405 9.99 22.4405 12.44C22.4305 14.84 20.5405 16.79 18.1605 16.87Z" stroke="white" stroke-width="1.5" stroke-linecap="round" stroke-linejoin="round"/>
<path d="M13.1607 20.56C10.7407 22.18 10.7407 24.82 13.1607 26.43C15.9107 28.27 20.4207 28.27 23.1707 26.43C25.5907 24.81 25.5907 22.17 23.1707 20.56C20.4307 18.73 15.9207 18.73 13.1607 20.56Z" stroke="white" stroke-width="1.5" stroke-linecap="round" stroke-linejoin="round"/>
</svg>
