<svg width="138" height="55" viewBox="0 0 138 55" fill="none" xmlns="http://www.w3.org/2000/svg">
<g clip-path="url(#clip0_2006_973)">
<path d="M0 0.765137H22.9205V8.40531H8.40535V22.5379H19.941V30.1781H8.40535V46.5946H22.9205V54.2348H0V0.765137Z" fill="white"/>
<path d="M34.2938 8.40531H25.5059V0.765137H51.4755V8.40531H42.6876V54.2348H34.2822V8.40531H34.2938Z" fill="white"/>
<path d="M58.5133 0.765137H69.8982L78.605 54.2348H70.1996L68.6693 43.615V43.7658H59.1162L57.5858 54.2348H49.7949L58.5133 0.765137ZM67.6722 36.5082L63.9275 10.0748H63.7768L60.1132 36.5082H67.6722Z" fill="white"/>
<path d="M85.3181 51.4873C83.1269 49.1454 82.0371 45.8296 82.0371 41.5632V13.4487C82.0371 9.17066 83.1269 5.86648 85.3181 3.52458C87.5093 1.18267 90.6627 0.0117188 94.7901 0.0117188C98.9174 0.0117188 102.071 1.18267 104.262 3.52458C106.453 5.86648 107.543 9.18225 107.543 13.4487V41.5632C107.543 45.8412 106.442 49.1454 104.262 51.4873C102.071 53.8292 98.9174 55.0001 94.7901 55.0001C90.6627 55.0001 87.5093 53.8292 85.3181 51.4873ZM99.1492 42.0849V12.9038C99.1492 9.39093 97.7001 7.62871 94.7901 7.62871C91.8801 7.62871 90.4309 9.39093 90.4309 12.9038V42.0849C90.4309 45.5977 91.8801 47.36 94.7901 47.36C97.7001 47.36 99.1492 45.6093 99.1492 42.0849Z" fill="#292C2D"/>
<path d="M129.616 8.40531H112.654V0.765137H137.859V8.09229L124.723 54.2232H116.167L129.616 8.39372V8.40531Z" fill="#292C2D"/>
</g>
<defs>
<clipPath id="clip0_2006_973">
<rect width="137.871" height="55" fill="white"/>
</clipPath>
</defs>
</svg>
