<svg width="118" height="47" viewBox="0 0 118 47" fill="none" xmlns="http://www.w3.org/2000/svg">
<g clip-path="url(#clip0_2006_2703)">
<path d="M0 0.653809H19.5866V7.18269H7.18276V19.2596H17.0405V25.7885H7.18276V39.8172H19.5866V46.3461H0V0.653809Z" fill="#E8C14A"/>
<path d="M29.3066 7.18269H21.7969V0.653809H43.9891V7.18269H36.4794V46.3461H29.2967V7.18269H29.3066Z" fill="#E8C14A"/>
<path d="M50.001 0.653809H59.73L67.1703 46.3461H59.9875L58.6798 37.271V37.3998H50.5162L49.2085 46.3461H42.5508L50.001 0.653809ZM57.8278 31.1979L54.6277 8.60933H54.4989L51.3682 31.1979H57.8278Z" fill="#E8C14A"/>
<path d="M72.9073 43.998C71.0348 41.9967 70.1035 39.1632 70.1035 35.5174V11.4923C70.1035 7.83649 71.0348 5.01293 72.9073 3.01166C74.7797 1.0104 77.4745 0.00976562 81.0015 0.00976562C84.5285 0.00976562 87.2232 1.0104 89.0957 3.01166C90.9682 5.01293 91.8995 7.8464 91.8995 11.4923V35.5174C91.8995 39.1731 90.9583 41.9967 89.0957 43.998C87.2232 45.9992 84.5285 46.9999 81.0015 46.9999C77.4745 46.9999 74.7797 45.9992 72.9073 43.998ZM84.7266 35.9632V11.0266C84.7266 8.02473 83.4882 6.51883 81.0015 6.51883C78.5148 6.51883 77.2764 8.02473 77.2764 11.0266V35.9632C77.2764 38.9651 78.5148 40.471 81.0015 40.471C83.4882 40.471 84.7266 38.975 84.7266 35.9632Z" fill="#292C2D"/>
<path d="M110.764 7.18269H96.2695V0.653809H117.808V6.91519L106.583 46.3361H99.2714L110.764 7.17278V7.18269Z" fill="#292C2D"/>
</g>
<defs>
<clipPath id="clip0_2006_2703">
<rect width="117.817" height="47" fill="white"/>
</clipPath>
</defs>
</svg>
