<svg width="32" height="32" viewBox="0 0 32 32" fill="none" xmlns="http://www.w3.org/2000/svg">
<path d="M27.4081 1.3335C28.2725 1.3335 29.1015 1.67688 29.7127 2.28811C30.3239 2.89934 30.6673 3.72835 30.6673 4.59276V27.4076C30.6673 28.272 30.3239 29.101 29.7127 29.7122C29.1015 30.3234 28.2725 30.6668 27.4081 30.6668H4.59324C3.72883 30.6668 2.89983 30.3234 2.2886 29.7122C1.67737 29.101 1.33398 28.272 1.33398 27.4076V4.59276C1.33398 3.72835 1.67737 2.89934 2.2886 2.28811C2.89983 1.67688 3.72883 1.3335 4.59324 1.3335H27.4081ZM26.5932 26.5928V17.9557C26.5932 16.5467 26.0335 15.1955 25.0372 14.1991C24.0409 13.2028 22.6896 12.6431 21.2807 12.6431C19.8955 12.6431 18.2821 13.4905 17.4999 14.7616V12.9528H12.9532V26.5928H17.4999V18.5587C17.4999 17.3039 18.5103 16.2772 19.7651 16.2772C20.3702 16.2772 20.9505 16.5176 21.3783 16.9454C21.8062 17.3733 22.0466 17.9536 22.0466 18.5587V26.5928H26.5932ZM7.65695 10.3942C8.38305 10.3942 9.07942 10.1058 9.59285 9.59236C10.1063 9.07893 10.3947 8.38256 10.3947 7.65646C10.3947 6.1409 9.1725 4.90238 7.65695 4.90238C6.92652 4.90238 6.22601 5.19255 5.70952 5.70903C5.19303 6.22552 4.90287 6.92603 4.90287 7.65646C4.90287 9.17201 6.14139 10.3942 7.65695 10.3942ZM9.92213 26.5928V12.9528H5.40806V26.5928H9.92213Z" fill="white"/>
</svg>
